<svg xmlns="http://www.w3.org/2000/svg" xmlns:xlink="http://www.w3.org/1999/xlink" xmlns:lucid="lucid" width="1381.5" height="1602"><g transform="translate(360.5 241)" lucid:page-tab-id="0_0"><path d="M-60-214a6 6 0 0 1 6-6H994a6 6 0 0 1 6 6v1548a6 6 0 0 1-6 6H-54a6 6 0 0 1-6-6z" stroke="#232f3e" stroke-width="2" fill="#fff" fill-opacity="0"/><path d="M-60-220h56v56h-56v-56z" stroke="#fff" stroke-opacity="0" fill="#232f3e"/><path d="M-19.12-178.78h-25c-4.13.05-7.57-3.1-7.9-7.2v-.64c-.15-3.4 1.97-6.38 5.25-7.36v-.66c.12-4.22 2.44-7.75 6.24-9.57 4.13-1.86 8.73-.96 11.8 2.3 1.1 1.1 1.85 2.2 2.45 3.6 1.2-1 2.72-1.32 4.24-.9 2.24.8 3.68 2.74 3.76 5.1 3.68.65 6.32 3.8 6.28 7.56 0 7.07-7.04 7.73-7.12 7.76zm-26.7-13.88c-2.83.6-4.75 3.14-4.6 6.04v.53c.3 3.33 3.1 5.84 6.4 5.76h24.98c3.04-.3 5.4-2.64 5.68-5.7.28-3.43-2.24-6.5-5.68-6.78-.44-.05-.72-.44-.64-.87.08-1.83-1-3.44-2.72-4.13-1.32-.37-2.64.13-3.44 1.24-.2.25-.44.38-.76.33-.28-.05-.48-.24-.6-.5-.6-1.6-1.4-2.85-2.6-4.04-2.68-2.8-6.6-3.6-10.13-2-3.24 1.6-5.2 4.63-5.32 8.24-.04.4-.04.74 0 1.14.04.4-.2.76-.6.84z" stroke="#fff" stroke-opacity="0" fill="#fff"/><use xlink:href="#a" transform="matrix(1,0,0,1,11,-200) translate(0 14.4)"/><use xlink:href="#b" transform="matrix(1,0,0,1,11,-200) translate(45.3 14.4)"/><path d="M0 606a6 6 0 0 1 6-6h928a6 6 0 0 1 6 6v668a6 6 0 0 1-6 6H6a6 6 0 0 1-6-6z" stroke="#b40c4c" stroke-width="2" fill="#fff" fill-opacity="0"/><path d="M10.13 610.13l.18-.22h35.4l.4.4v35.4l-.4.4H10.3l-.4-.4v-35.4zm34.66 1.12l-.16-.1H28c-15.1 0-16.68 0-16.8.06-.06.12-.06 1.7-.06 16.8v16.64l.1.15.15.1h33.2l.3-.3v-33.2zM14.32 621.3l.18-.2H26.1l.22.2.22.22v11.58l-.4.4h-11.6l-.2-.22-.2-.18v-11.6zm18.63 8.33c.65-.18 2.02-.18 2.6 0l.65.18c.12 0 .37.12.55.2.15.1.33.17.4.17.08 0 .15.04.18.1.04.05.22.2.37.26.18.08.28.18.28.22l.22.14c.1.03.22.1.22.18.03.07.07.1.07.1.06 0 .57.5.57.55 0 .03.07.14.18.25.1.14.22.25.22.3 0 .02.07.17.14.24.12.1.2.25.2.3 0 .03.07.25.17.46.1.18.22.44.22.5 0 .08.06.33.14.6.2.64.2 1.98 0 2.63-.08.26-.15.5-.15.6 0 .17-.12.38-.23.5-.03.03-.1.2-.14.4-.07.14-.1.28-.14.28-.05 0-.12.1-.2.25-.07.1-.18.3-.28.4-.08.07-.15.18-.15.22 0 0-.18.22-.4.43-.22.22-.4.4-.43.4-.04 0-.1.07-.22.14-.07.08-.3.22-.4.3l-.25.14c0 .04-.1.1-.3.14-.17.08-.3.15-.4.18-.1.1-.3.2-.5.2-.07 0-.32.06-.54.17-.68.2-2.02.2-2.67 0-.26-.1-.5-.18-.58-.18-.08 0-.3-.08-.5-.2-.23-.1-.4-.17-.48-.17-.04 0-.14-.07-.25-.18-.1-.1-.22-.18-.26-.18-.08 0-.2-.07-.3-.18l-.25-.18c-.07 0-.58-.5-.58-.58 0-.03-.03-.07-.1-.07-.08-.04-.15-.15-.2-.25-.06-.08-.1-.2-.13-.2-.04 0-.1-.1-.22-.27-.07-.14-.18-.32-.25-.36-.04-.03-.1-.14-.1-.18 0-.07-.08-.25-.16-.43-.1-.14-.17-.4-.2-.54 0-.12-.1-.4-.18-.67-.18-.57-.18-1.88 0-2.53.1-.25.18-.58.2-.72.05-.18.12-.33.16-.36l.14-.33c.04-.15.15-.33.22-.44.1-.1.18-.22.18-.25 0-.07.47-.68.8-1 .3-.3.9-.8 1-.8.05 0 .15-.08.23-.15.1-.07.3-.18.43-.22.15-.03.3-.1.33-.18.04-.03.22-.07.37-.1l.7-.22zm-7.78-7.16l-.1-.15H20.3c-4.27 0-4.78.04-4.9.1-.06.08-.06.6-.06 4.86v4.77l.1.15c.15.1.2.1 4.86.1h4.73l.15-.14.1-.14v-4.7c0-4.7 0-4.75-.1-4.86zm10.78-9.16c.22-.17.7-.3.7-.13 0 .03.06.07.17.14.1.05.18.16.2.23 0 .1.12.25.2.4.07.1.14.25.14.3 0 .06.07.17.14.28.1.12.2.3.23.44.04.1.1.25.18.33.05.07.12.2.16.32.03.1.1.28.18.4.1.1.18.24.18.35.03.07.1.22.22.36.07.12.14.27.14.34 0 .04.07.18.14.3.08.1.15.28.2.4.02.1.13.24.17.3.06.08.13.23.17.34.03.1.1.3.18.4.07.1.14.3.18.36.04.07.1.25.18.36.12.14.2.25.2.32 0 .04.03.18.1.3.1.1.18.28.22.4.03.14.1.28.18.35.07.04.14.18.14.3.04.1.15.28.22.4.07.1.14.28.18.4.04.1.14.28.22.35.07.1.1.25.1.3 0 .06.08.17.15.28.08.1.2.3.23.43.03.1.1.26.18.33.26.3.33.9.15 1.23-.03 0-.03.02-.03.06-.15.18-.58.18-6 .15h-5.43l-.16-.18c-.18-.2-.18-.86 0-1.08.07-.07.18-.25.22-.36.03-.1.1-.3.18-.4.07-.07.14-.22.14-.33.04-.1.15-.28.22-.4.1-.14.18-.32.18-.36 0-.08.04-.2.15-.26.07-.1.14-.3.18-.4l.15-.32c.07-.07.15-.22.18-.33.04-.15.15-.33.22-.4.07-.1.14-.26.14-.33.03-.1.1-.3.2-.44.08-.14.16-.28.16-.32 0-.06.07-.17.14-.28.07-.07.18-.25.22-.36.03-.15.1-.3.14-.33.07-.07.15-.22.18-.36l.18-.36c.08-.1.15-.24.2-.35-.02-.07.1-.26.17-.4.1-.14.17-.3.17-.36 0-.05.07-.2.14-.27.08-.1.2-.28.2-.4.03-.1.1-.25.17-.32.04-.02.15-.2.18-.3.04-.12.1-.3.2-.4.06-.1.13-.23.13-.34.04-.1.14-.3.22-.43.1-.1.18-.26.18-.33 0-.03.07-.18.18-.3zm-.36 17.56c-.44-.18-2.43-.15-2.68.03-.07.07-.3.14-.43.18-.2.03-.38.1-.48.18-.08.07-.22.14-.3.18-.14.03-.43.25-.93.76-.48.5-.7.76-.77.94-.04.07-.1.2-.2.3-.06.06-.13.28-.17.42-.03.18-.1.4-.18.5-.2.37-.14 2.8.08 2.8.03 0 .07.1.07.25.03.15.1.37.18.48.08.1.2.25.23.36.07.18.18.32.5.68.1.1.22.22.26.3.06.07.17.17.27.25.08.07.26.18.33.3l.3.17c.06.03.2.1.32.18.1.1.32.18.43.18.14.04.32.1.43.18.33.18 2.54.18 2.8 0 .1-.07.28-.14.4-.14.13-.04.35-.1.46-.2l.4-.24c.14-.07.2-.14.2-.14 0-.04.1-.08.12-.1.15-.05.94-.84.98-1 .03-.06.07-.1.1-.1.04 0 .1-.1.15-.2l.24-.45c.08-.1.15-.28.18-.42.04-.1.1-.3.15-.4.22-.25.18-2.46 0-2.8-.07-.1-.15-.3-.15-.42-.03-.1-.1-.33-.18-.43-.1-.1-.18-.26-.2-.33 0-.07-.12-.22-.2-.3l-.28-.35c-.08-.07-.18-.22-.26-.25-.03-.08-.18-.18-.3-.26-.35-.36-.5-.43-.67-.5-.07-.08-.26-.15-.36-.22-.1-.07-.33-.14-.44-.18l-.25-.07c0-.04-.1-.08-.18-.1zm1.05-15.38c-.1-.14-.44-.03-.55.22-.07.07-.14.25-.18.36-.07.1-.14.26-.18.33-.04.1-.1.24-.18.35l-.14.33c-.08.07-.15.2-.2.32-.02.1-.1.25-.17.36l-.18.36c-.03.1-.14.3-.18.37-.04.1-.15.27-.2.35-.02.1-.13.3-.17.36l-.14.33c-.1.1-.16.26-.2.33-.03.07-.1.25-.18.36-.03.1-.1.25-.14.33-.07.07-.15.25-.22.36-.03.12-.1.3-.18.4-.03.08-.1.26-.18.37l-.14.33c-.08.07-.15.2-.2.32-.17.4-.3.65-.38.8-.15.25-.3.43-.22.54.07.25.98.22 4.3.22h3.98l.15-.1c.13-.16.06-.45-.12-.66-.07-.04-.14-.22-.18-.33-.04-.12-.1-.3-.22-.4-.07-.08-.1-.22-.1-.26 0-.07-.08-.22-.15-.33-.1-.13-.22-.3-.25-.46-.04-.14-.1-.25-.15-.3-.03-.02-.1-.17-.18-.3-.03-.16-.1-.34-.18-.4-.07-.08-.15-.23-.18-.34-.05-.14-.12-.32-.2-.4-.06-.1-.14-.2-.14-.28 0-.04-.07-.22-.14-.33-.07-.12-.18-.33-.22-.44-.07-.15-.14-.3-.18-.33-.04-.03-.1-.18-.14-.32-.08-.14-.15-.28-.22-.36-.04-.07-.1-.2-.15-.36-.02-.1-.13-.3-.2-.4-.07-.07-.15-.17-.15-.25 0-.07-.07-.2-.14-.32-.06-.1-.17-.32-.2-.43-.04-.14-.12-.25-.15-.3z" stroke="#fff" stroke-opacity="0" fill="#fff"/><path d="M0 656v-56h56v56H0zm46.14-45.7l-.44-.4H10.3l-.16.24-.23.16v35.4l.4.44h35.45l.4-.4V610.3zm-34.88.96c.05-.12 1.68-.12 16.74-.12h16.7l.1.12.1.1v33.27l-.27.28H11.37l-.1-.1-.13-.1V628c0-15.06 0-16.7.12-16.74zm15.06 10.08l-.22-.23H14.5l-.16.24-.23.16v11.6l.24.22.16.22h11.6l.44-.4V621.5zm9.24 8.28c-.56-.16-1.96-.16-2.58.06-.22.06-.56.1-.67.17-.16.05-.32.1-.38.1-.06.07-.17.12-.34.18-.1.05-.33.17-.4.22-.1.1-.2.17-.27.17-.04 0-.66.5-1 .78-.28.34-.78.96-.78 1 0 .07-.06.18-.17.3-.05.05-.17.27-.22.38-.06.17-.1.28-.17.34 0 .06-.06.22-.1.4-.07.1-.12.44-.24.72-.16.62-.16 1.96 0 2.52.12.22.17.5.17.67.05.1.1.34.22.5.1.17.16.4.16.45 0 .06.06.12.12.17.05.06.16.23.22.4.1.16.22.27.22.27.06 0 .12.12.17.17 0 .1.12.22.18.22l.1.1c0 .06.52.57.57.57 0 0 .1.1.28.2.1.07.23.18.28.18 0 0 .12.06.24.17.1.1.22.17.28.17.05 0 .28.1.44.22.23.06.45.17.56.17.06 0 .34.06.56.18.62.22 2.02.22 2.64 0 .28-.12.5-.17.6-.17.18 0 .4-.1.52-.16 0-.06.22-.17.4-.22.16 0 .27-.12.27-.12 0-.05.12-.1.23-.16l.4-.28c.1-.12.22-.17.22-.17.05 0 .22-.18.45-.4.22-.23.4-.4.4-.45 0 0 .04-.1.16-.23.05-.05.22-.28.28-.4.05-.1.1-.2.16-.2 0 0 .12-.12.12-.3.05-.16.16-.38.22-.38.06-.12.17-.34.17-.5 0-.12.06-.34.18-.62.22-.62.22-2.02 0-2.64-.12-.22-.17-.5-.17-.56 0-.1-.1-.33-.16-.56-.1-.16-.22-.4-.22-.44 0-.06-.06-.17-.17-.28l-.17-.23c0-.04-.1-.16-.17-.27-.1-.17-.2-.28-.2-.28 0-.05-.52-.56-.57-.56 0 0-.06-.06-.06-.12-.05-.06-.17-.1-.28-.17-.06-.04-.18-.1-.18-.16 0 0-.1-.1-.28-.22-.16-.06-.33-.17-.4-.22-.04-.06-.1-.12-.16-.12-.05 0-.28-.05-.44-.16-.17-.12-.4-.17-.5-.23-.18 0-.46-.06-.68-.18zm-20.1-7.16c.05-.12.56-.12 4.87-.12h4.76l.1.12c.1.1.1.16.1 4.87v4.7l-.1.17-.17.1h-4.7c-4.7 0-4.76 0-4.87-.1l-.12-.1v-4.77c0-4.3 0-4.82.12-4.87zm21.22-9.3c0-.06-.1-.06-.22-.06-.28 0-.68.34-.68.5 0 .06-.05.23-.16.34-.12.17-.17.34-.23.45 0 .05-.06.22-.12.33-.1.05-.17.22-.22.4-.06.1-.12.2-.17.33-.07.05-.12.16-.18.28 0 .1-.1.28-.17.4-.1.1-.17.2-.17.27 0 .06-.05.23-.16.34-.12.17-.17.34-.23.45 0 .05-.06.22-.12.33-.1.05-.17.22-.22.4l-.17.27c-.07.1-.12.22-.18.34 0 .1-.1.28-.17.4-.1.1-.17.2-.17.27 0 .06-.05.23-.16.34-.12.17-.17.34-.23.45 0 .05-.06.22-.12.33-.1.05-.17.22-.22.4-.06.1-.12.2-.17.33-.07.05-.12.16-.18.28 0 .1-.1.28-.17.4-.1.1-.17.2-.17.27 0 .06-.05.23-.16.34-.12.17-.17.34-.23.45 0 .05-.06.22-.12.33-.1.05-.17.22-.22.4-.06.1-.12.27-.17.33-.24.22-.24.9-.07 1.12l.17.16h5.43c5.43 0 5.88 0 6-.16 0-.06.05-.06.05-.12.17-.28.1-.9-.17-1.17-.04-.12-.1-.24-.16-.35-.05-.17-.1-.33-.22-.45-.06-.1-.1-.22-.1-.28 0-.05-.07-.16-.12-.28-.12-.1-.17-.28-.23-.4-.05-.1-.1-.27-.22-.38-.06-.1-.1-.28-.17-.4 0-.1-.1-.22-.17-.27-.04-.12-.1-.24-.16-.35-.05-.17-.1-.33-.22-.45-.06-.1-.1-.22-.1-.28 0-.05-.07-.16-.18-.33-.06-.12-.17-.3-.17-.35-.05-.1-.1-.28-.17-.4-.1-.1-.16-.27-.22-.38 0-.1-.1-.23-.17-.28-.04-.12-.1-.24-.16-.35-.05-.17-.1-.33-.22-.45-.06-.1-.1-.22-.1-.28 0-.05-.07-.16-.18-.33-.06-.12-.17-.3-.17-.35-.05-.1-.1-.28-.17-.4-.1-.1-.16-.27-.22-.38 0-.1-.1-.23-.17-.28-.04-.12-.1-.24-.16-.35-.05-.17-.1-.33-.22-.45-.06-.1-.1-.22-.1-.28 0-.05-.07-.16-.18-.33-.06-.12-.17-.3-.17-.35-.05-.1-.1-.22-.22-.28-.1 0-.17-.05-.17-.1zm-3.36 17.64c.78-.1 2.46 0 2.46.17 0 .05.12.05.28.1.12 0 .34.07.45.18.12.05.3.17.35.17.17.1.33.16.67.56.1.05.28.16.34.22.05.06.16.17.22.28.06.1.22.22.28.34.1.1.17.22.22.28 0 .05.06.22.17.33.1.1.17.34.17.45.06.1.1.34.17.45.2.28.2 2.52 0 2.8-.07.05-.12.22-.12.4-.06.1-.12.33-.23.44-.05.1-.17.28-.22.4-.06.1-.1.2-.17.2 0 0-.06.07-.06.13-.05.16-.84.95-1 1-.06 0-.12.06-.12.06 0 .06-.1.1-.22.17-.1.05-.28.17-.4.22-.1.1-.33.17-.44.23-.17 0-.34.05-.4.1-.27.23-2.5.23-2.8 0-.1-.05-.33-.1-.44-.16-.1 0-.34-.1-.45-.17-.1-.1-.28-.17-.33-.17-.06-.05-.17-.1-.28-.22-.12-.06-.23-.22-.34-.28-.1-.06-.22-.17-.28-.22-.06-.06-.17-.23-.22-.34-.4-.34-.45-.5-.56-.67 0-.06-.12-.23-.17-.34-.1-.1-.17-.32-.17-.44-.06-.16-.06-.28-.1-.28-.24 0-.3-2.4-.07-2.8.07-.1.12-.33.18-.5.06-.17.1-.34.17-.45.1-.05.17-.22.17-.28.05-.17.28-.45.78-.95.5-.5.78-.73.95-.78.06 0 .23-.06.28-.17.1-.06.28-.1.45-.17.17-.06.4-.1.45-.17.05-.04.28-.1.4-.1zm3.02-15.34c.28-.12.34-.06.45.33l.22.38c.1.17.16.28.16.34s.06.22.12.28c.1.1.16.28.22.4.06.1.1.27.17.33.04.05.16.22.2.4 0 .16.12.27.12.33.06.05.12.16.17.28.05.16.16.33.22.44.1.17.16.28.16.34s.06.22.12.28c.1.1.16.28.22.4.06.1.1.27.17.33.04.05.16.22.2.4 0 .16.12.27.12.33.06.05.12.16.17.28.05.16.16.33.22.44.1.17.16.28.16.34s.06.22.12.28c.1.1.16.28.22.4.06.1.1.27.17.33.2.22.27.5.1.6l-.1.18h-4c-3.35 0-4.24 0-4.36-.2 0-.18.12-.35.23-.57.1-.1.22-.4.45-.8 0-.1.1-.27.16-.32 0-.05.12-.22.17-.33 0-.1.1-.28.17-.33.06-.12.1-.28.17-.4.04-.16.16-.33.2-.4 0-.04.12-.2.12-.32.06-.12.17-.28.17-.34.05-.06.16-.22.22-.34 0-.1.1-.28.16-.33 0-.05.12-.22.17-.33 0-.1.1-.28.17-.4.06-.05.1-.2.17-.33.04-.16.16-.33.2-.4 0-.04.12-.2.12-.32.06-.12.17-.28.17-.34.05-.06.16-.22.22-.34 0-.1.1-.28.16-.33 0-.05.12-.22.17-.33 0-.1.1-.28.17-.4.06-.05.1-.16.22-.2z" stroke="#fff" stroke-opacity="0" fill="#b40c4c"/><use xlink:href="#c" transform="matrix(1,0,0,1,71,620) translate(0 14.4)"/><use xlink:href="#d" transform="matrix(1,0,0,1,71,620) translate(49.4 14.4)"/><use xlink:href="#e" transform="matrix(1,0,0,1,71,620) translate(94.69999999999999 14.4)"/><path d="M320 806a6 6 0 0 1 6-6h308a6 6 0 0 1 6 6v388a6 6 0 0 1-6 6H326a6 6 0 0 1-6-6z" stroke="#dd3522" stroke-width="2" fill="#fff" fill-opacity="0"/><use xlink:href="#f" transform="matrix(1,0,0,1,320,820) translate(100.07499999999999 14.4)"/><use xlink:href="#g" transform="matrix(1,0,0,1,320,820) translate(169.975 14.4)"/><path d="M220 706a6 6 0 0 1 6-6h448a6 6 0 0 1 6 6v528a6 6 0 0 1-6 6H226a6 6 0 0 1-6-6z" stroke="#248814" stroke-width="2" fill="#fff" fill-opacity="0"/><path d="M220 700h56v56h-56v-56z" stroke="#fff" stroke-opacity="0" fill="#248814"/><path d="M251.76 728.3h-1.18v-1.1c-.12-1.73-1.48-3.07-3.2-3.2-1.9-.13-3.54 1.3-3.67 3.2v1.07h-1.17c-.44 0-.8.36-.8.8v6.13c0 .44.36.8.8.8h9.23c.44 0 .8-.36.8-.8v-6.1c0-.44-.36-.8-.8-.8zm-6.4-1.06c.1-1.02 1-1.77 2-1.67.9.08 1.58.76 1.67 1.67v1.06h-3.72zm5.65 7.08h-7.67v-4.42h7.63z" stroke="#fff" stroke-opacity="0" fill="#fff"/><path d="M262.27 725.75c-.08-2.45-1.58-4.48-3.87-5.3-1.58-.47-3.16-.14-4.4.9-.68-1.45-1.47-2.6-2.6-3.76-3.24-3.36-7.94-4.3-12.18-2.4-4.04 1.9-6.4 5.63-6.54 10.05v.7c-3.4.97-5.66 4.08-5.5 7.65v.63c.38 4.28 3.92 7.52 8.2 7.47h26s7.42-.63 7.42-8.1c.04-3.9-2.66-7.2-6.53-7.86zm-.96 14.38h-25.9c-3.47.06-6.3-2.52-6.6-5.96v-.52c-.15-3.05 1.93-5.7 4.92-6.3.38-.12.63-.48.6-.9-.06-.4-.06-.73 0-1.15.07-3.78 2.1-6.94 5.52-8.6 1.25-.57 2.4-.8 3.83-.84 2.62.08 4.87 1.04 6.7 2.94 1.25 1.3 2.04 2.6 2.62 4.3.03.15.1.28.24.37.37.27.87.2 1.12-.17.83-1.18 2.25-1.67 3.62-1.3 1.8.72 2.87 2.4 2.83 4.32-.07.4.22.82.64.9 3.57.36 6.2 3.55 5.82 7.12-.3 3.13-2.7 5.52-5.82 5.85z" stroke="#fff" stroke-opacity="0" fill="#fff"/><use xlink:href="#h" transform="matrix(1,0,0,1,291,720) translate(0 14.4)"/><use xlink:href="#i" transform="matrix(1,0,0,1,291,720) translate(55.5 14.4)"/><use xlink:href="#j" transform="matrix(1,0,0,1,291,720) translate(116.4 14.4)"/><path d="M0-134a6 6 0 0 1 6-6h928a6 6 0 0 1 6 6v668a6 6 0 0 1-6 6H6a6 6 0 0 1-6-6z" stroke="#b40c4c" stroke-width="2" fill="#fff" fill-opacity="0"/><path d="M10.13-129.87l.18-.22h35.4l.4.4v35.4l-.4.4H10.3l-.4-.4v-35.4zm34.66 1.12l-.16-.1H28c-15.1 0-16.68 0-16.8.06-.06.12-.06 1.72-.06 16.8v16.64l.1.15.15.1h33.2l.3-.3v-33.2zM14.32-118.7l.18-.2H26.1l.22.2.22.22v11.58l-.4.4h-11.6l-.2-.22-.2-.18v-11.6zm18.63 8.33c.65-.18 2.02-.18 2.6 0l.65.18c.12 0 .37.12.55.2.15.1.33.17.4.17.08 0 .15.04.18.1.04.05.22.2.37.26.18.08.28.18.28.22l.22.14c.1.03.22.1.22.17.03.08.07.1.07.1.06 0 .57.52.57.56 0 .03.07.14.18.25.1.14.22.25.22.3 0 .03.07.17.14.24.12.1.2.26.2.3 0 .03.07.25.17.46.1.18.22.44.22.5 0 .08.06.33.14.6.2.64.2 1.98 0 2.63-.08.26-.15.5-.15.6 0 .17-.12.4-.23.5-.03.03-.1.2-.14.4-.07.14-.1.28-.14.28-.05 0-.12.1-.2.25-.07.1-.18.3-.28.4-.08.07-.15.18-.15.22 0 0-.18.22-.4.43-.22.22-.4.4-.43.4-.04 0-.1.07-.22.14-.07.08-.3.22-.4.3l-.25.14c0 .04-.1.1-.3.14l-.4.2c-.1.1-.3.17-.5.17-.07 0-.32.07-.54.18-.68.2-2.02.2-2.67 0-.26-.1-.5-.18-.58-.18-.08 0-.3-.08-.5-.18-.23-.12-.4-.2-.48-.2-.04 0-.14-.07-.25-.18-.1-.1-.22-.18-.26-.18-.08 0-.2-.07-.3-.18l-.25-.18c-.07 0-.58-.5-.58-.58 0-.03-.03-.07-.1-.07-.08-.04-.15-.14-.2-.25-.06-.08-.1-.2-.13-.2-.04.02-.1-.1-.22-.27-.07-.14-.18-.32-.25-.36-.04-.03-.1-.14-.1-.18 0-.07-.08-.25-.16-.43-.1-.14-.17-.4-.2-.54 0-.12-.1-.4-.18-.66-.18-.58-.18-1.9 0-2.54.1-.25.18-.58.2-.72.05-.18.12-.33.16-.36l.14-.33c.04-.15.15-.33.22-.44.1-.1.18-.22.18-.25 0-.07.47-.68.8-1 .3-.3.9-.8 1-.8.05 0 .15-.08.23-.15.1-.07.3-.18.43-.22.15-.03.3-.1.33-.18.04-.03.22-.07.37-.1l.7-.22zm-7.78-7.16l-.1-.15H20.3c-4.27 0-4.78.04-4.9.1-.06.08-.06.6-.06 4.86v4.77l.1.15c.15.1.2.1 4.86.1h4.73l.15-.14.1-.14v-4.7c0-4.7 0-4.75-.1-4.85zm10.78-9.16c.22-.17.7-.3.7-.13 0 .03.06.07.17.14.1.05.18.16.2.23 0 .1.12.25.2.4.07.1.14.25.14.3 0 .06.07.17.14.28.1.1.2.3.23.44.04.1.1.25.18.33.05.07.12.2.16.32.03.1.1.28.18.4.1.1.18.24.18.35.03.07.1.22.22.36.07.12.14.27.14.34 0 .03.07.18.14.3.08.1.15.28.2.4.02.1.13.24.17.3.06.08.13.23.17.34.03.1.1.3.18.4.07.1.14.28.18.36.04.07.1.25.18.36.12.14.2.25.2.32 0 .04.03.2.1.3.1.1.18.28.22.4.03.14.1.28.18.35.07.04.14.18.14.3.04.1.15.28.22.4.07.1.14.28.18.4.04.1.14.28.22.35.07.1.1.25.1.3 0 .06.08.17.15.28.08.1.2.3.23.43.03.1.1.26.18.33.26.3.33.9.15 1.23-.03 0-.03.02-.03.06-.15.18-.58.18-6 .15h-5.43l-.16-.17c-.18-.22-.18-.87 0-1.1.07-.06.18-.24.22-.35.03-.1.1-.3.18-.4.07-.07.14-.22.14-.33.04-.1.15-.28.22-.4.1-.14.18-.32.18-.35 0-.08.04-.2.15-.26.07-.1.14-.3.18-.4l.15-.32c.07-.07.15-.22.18-.33.04-.15.15-.33.22-.4.07-.1.14-.26.14-.33.03-.1.1-.3.2-.44.08-.14.16-.28.16-.32 0-.06.07-.17.14-.28.07-.07.18-.25.22-.36.03-.15.1-.3.14-.33.07-.07.15-.22.18-.36l.18-.36c.08-.1.15-.24.2-.35-.02-.08.1-.26.17-.4.1-.14.17-.3.17-.36 0-.05.07-.2.14-.27.08-.1.2-.28.2-.4.03-.1.1-.25.17-.32.04-.03.15-.2.18-.32.04-.1.1-.28.2-.4.06-.07.13-.2.13-.32.04-.1.14-.3.22-.43.1-.1.18-.26.18-.33 0-.03.07-.18.18-.3zm-.36 17.56c-.44-.18-2.43-.15-2.68.03-.07.07-.3.14-.43.17-.2.04-.38.1-.48.2-.08.06-.22.13-.3.17-.14.03-.43.25-.93.76-.48.5-.7.76-.77.94-.04.07-.1.2-.2.3-.06.06-.13.28-.17.42-.03.18-.1.4-.18.5-.2.37-.14 2.8.08 2.8.03 0 .07.1.07.25.03.15.1.37.18.48.08.1.2.25.23.36.07.18.18.32.5.7.1.1.22.2.26.28.06.07.17.17.27.25.08.07.26.18.33.3l.3.17c.06.03.2.1.32.18.1.1.32.18.43.18.14.04.32.1.43.18.33.18 2.54.18 2.8 0 .1-.07.28-.14.4-.14.13-.04.35-.1.46-.2l.4-.24c.14-.07.2-.14.2-.14 0-.04.1-.08.12-.1.15-.05.94-.84.98-1 .03-.06.07-.1.1-.1.04 0 .1-.1.15-.2l.24-.45c.08-.1.15-.28.18-.42.04-.1.1-.3.15-.4.22-.25.18-2.46 0-2.78-.07-.1-.15-.33-.15-.44-.03-.1-.1-.33-.18-.43-.1-.1-.18-.26-.2-.33 0-.07-.12-.22-.2-.3l-.28-.35c-.08-.07-.18-.22-.26-.25-.03-.08-.18-.18-.3-.26-.35-.36-.5-.43-.67-.5-.07-.08-.26-.15-.36-.22-.1-.07-.33-.14-.44-.18l-.25-.07c0-.04-.1-.08-.18-.1zm1.05-15.38c-.1-.14-.44-.03-.55.22-.07.07-.14.25-.18.36-.07.1-.14.25-.18.33-.04.1-.1.24-.18.35l-.14.33c-.08.07-.15.2-.2.32-.02.1-.1.25-.17.36l-.18.36c-.03.1-.14.3-.18.37-.04.1-.15.28-.2.35-.02.1-.13.3-.17.36l-.14.33c-.1.1-.16.26-.2.33-.03.07-.1.25-.18.36-.03.1-.1.25-.14.33-.07.07-.15.25-.22.36-.03.12-.1.3-.18.4-.03.08-.1.26-.18.37l-.14.33c-.08.07-.15.2-.2.32-.17.4-.3.65-.38.8-.15.25-.3.43-.22.54.07.25.98.22 4.3.22h3.98l.15-.1c.13-.16.06-.45-.12-.66-.07-.04-.14-.22-.18-.33-.04-.12-.1-.3-.22-.4-.07-.08-.1-.22-.1-.26 0-.07-.08-.22-.15-.33-.1-.13-.22-.3-.25-.46-.04-.14-.1-.25-.15-.3-.03-.02-.1-.17-.18-.3-.03-.16-.1-.34-.18-.4-.07-.08-.15-.23-.18-.34-.05-.14-.12-.32-.2-.4-.06-.1-.14-.2-.14-.28 0-.04-.07-.22-.14-.33-.07-.12-.18-.33-.22-.44-.07-.15-.14-.3-.18-.33-.04-.03-.1-.18-.14-.32-.08-.14-.15-.28-.22-.36-.04-.07-.1-.2-.15-.36-.02-.1-.13-.3-.2-.4-.07-.07-.15-.17-.15-.25 0-.07-.07-.22-.14-.32-.06-.1-.17-.32-.2-.43-.04-.14-.12-.25-.15-.3z" stroke="#fff" stroke-opacity="0" fill="#fff"/><path d="M0-84v-56h56v56H0zm46.14-45.7l-.44-.4H10.3l-.16.24-.23.16v35.4l.4.44h35.45l.4-.4v-35.44zm-34.88.96c.05-.12 1.68-.12 16.74-.12h16.7l.1.12.1.1v33.27l-.27.28H11.37l-.1-.1-.13-.1V-112c0-15.06 0-16.7.12-16.74zm15.06 10.08l-.22-.23H14.5l-.16.24-.23.16v11.6l.24.22.16.22h11.6l.44-.4v-11.64zm9.24 8.28c-.56-.16-1.96-.16-2.58.06-.22.06-.56.1-.67.17-.16.05-.32.1-.38.1-.06.07-.17.12-.34.18-.1.05-.33.17-.4.22-.1.1-.2.17-.27.17-.04 0-.66.5-1 .78-.28.34-.78.96-.78 1 0 .07-.06.18-.17.3-.05.05-.17.27-.22.38-.06.17-.1.28-.17.34 0 .06-.06.22-.1.4-.07.1-.12.44-.24.72-.16.62-.16 1.96 0 2.52.12.22.17.5.17.67.05.1.1.34.22.5.1.17.16.4.16.45 0 .06.06.12.12.17.05.06.16.23.22.4.1.16.22.27.22.27.06 0 .12.12.17.17 0 .1.12.22.18.22l.1.1c0 .06.52.57.57.57 0 0 .1.1.28.2.1.07.23.18.28.18 0 0 .12.06.24.17.1.1.22.17.28.17.05 0 .28.1.44.22.23.06.45.17.56.17.06 0 .34.06.56.18.62.22 2.02.22 2.64 0 .28-.12.5-.17.6-.17.18 0 .4-.1.52-.16 0-.06.22-.17.4-.22.16 0 .27-.12.27-.12 0-.05.12-.1.23-.16l.4-.28c.1-.12.22-.17.22-.17.05 0 .22-.18.45-.4.22-.23.4-.4.4-.45 0 0 .04-.1.16-.23.05-.05.22-.28.28-.4.05-.1.1-.2.16-.2 0 0 .12-.12.12-.3.05-.16.16-.38.22-.38.06-.12.17-.34.17-.5 0-.12.06-.34.18-.62.22-.62.22-2.02 0-2.64-.12-.22-.17-.5-.17-.56 0-.1-.1-.33-.16-.56-.1-.16-.22-.4-.22-.44 0-.06-.06-.17-.17-.28l-.17-.23c0-.04-.1-.16-.17-.27-.1-.17-.2-.28-.2-.28 0-.05-.52-.56-.57-.56 0 0-.06-.06-.06-.12-.05-.06-.17-.1-.28-.17-.06-.04-.18-.1-.18-.16 0 0-.1-.1-.28-.22-.16-.06-.33-.17-.4-.22-.04-.06-.1-.12-.16-.12-.05 0-.28-.05-.44-.16-.17-.12-.4-.17-.5-.23-.18 0-.46-.06-.68-.18zm-20.1-7.16c.05-.12.56-.12 4.87-.12h4.76l.1.12c.1.1.1.16.1 4.87v4.7l-.1.17-.17.1h-4.7c-4.7 0-4.76 0-4.87-.1l-.12-.1v-4.77c0-4.3 0-4.82.12-4.87zm21.22-9.3c0-.06-.1-.06-.22-.06-.28 0-.68.34-.68.5 0 .06-.05.23-.16.34-.12.17-.17.34-.23.45 0 .05-.06.22-.12.33-.1.05-.17.22-.22.4-.06.1-.12.2-.17.33-.07.05-.12.16-.18.28 0 .1-.1.28-.17.4-.1.1-.17.2-.17.27 0 .06-.05.23-.16.34-.12.17-.17.34-.23.45 0 .05-.06.22-.12.33-.1.05-.17.22-.22.4l-.17.27c-.07.1-.12.22-.18.34 0 .1-.1.28-.17.4-.1.1-.17.2-.17.27 0 .06-.05.23-.16.34-.12.17-.17.34-.23.45 0 .05-.06.22-.12.33-.1.05-.17.22-.22.4-.06.1-.12.2-.17.33-.07.05-.12.16-.18.28 0 .1-.1.28-.17.4-.1.1-.17.2-.17.27 0 .06-.05.23-.16.34-.12.17-.17.34-.23.45 0 .05-.06.22-.12.33-.1.05-.17.22-.22.4-.06.1-.12.27-.17.33-.24.22-.24.9-.07 1.12l.17.16h5.43c5.43 0 5.88 0 6-.16 0-.06.05-.06.05-.12.17-.28.1-.9-.17-1.17-.04-.12-.1-.24-.16-.35-.05-.17-.1-.33-.22-.45-.06-.1-.1-.22-.1-.28 0-.05-.07-.16-.12-.28-.12-.1-.17-.28-.23-.4-.05-.1-.1-.27-.22-.38-.06-.1-.1-.28-.17-.4 0-.1-.1-.22-.17-.27-.04-.12-.1-.24-.16-.35-.05-.17-.1-.33-.22-.45-.06-.1-.1-.22-.1-.28 0-.05-.07-.16-.18-.33-.06-.12-.17-.3-.17-.35-.05-.1-.1-.28-.17-.4-.1-.1-.16-.27-.22-.38 0-.1-.1-.23-.17-.28-.04-.12-.1-.24-.16-.35-.05-.17-.1-.33-.22-.45-.06-.1-.1-.22-.1-.28 0-.05-.07-.16-.18-.33-.06-.12-.17-.3-.17-.35-.05-.1-.1-.28-.17-.4-.1-.1-.16-.27-.22-.38 0-.1-.1-.23-.17-.28-.04-.12-.1-.24-.16-.35-.05-.17-.1-.33-.22-.45-.06-.1-.1-.22-.1-.28 0-.05-.07-.16-.18-.33-.06-.12-.17-.3-.17-.35-.05-.1-.1-.22-.22-.28-.1 0-.17-.05-.17-.1zm-3.36 17.64c.78-.1 2.46 0 2.46.17 0 .05.12.05.28.1.12 0 .34.07.45.18.12.05.3.17.35.17.17.1.33.16.67.56.1.05.28.16.34.22.05.06.16.17.22.28.06.1.22.22.28.34.1.1.17.22.22.28 0 .05.06.22.17.33.1.1.17.34.17.45.06.1.1.34.17.45.2.28.2 2.52 0 2.8-.07.05-.12.22-.12.4-.06.1-.12.33-.23.44-.05.1-.17.28-.22.4-.06.1-.1.2-.17.2 0 0-.06.07-.06.13-.05.16-.84.95-1 1-.06 0-.12.06-.12.06 0 .06-.1.1-.22.17-.1.05-.28.17-.4.22-.1.1-.33.17-.44.23-.17 0-.34.05-.4.1-.27.23-2.5.23-2.8 0-.1-.05-.33-.1-.44-.16-.1 0-.34-.1-.45-.17-.1-.1-.28-.17-.33-.17-.06-.05-.17-.1-.28-.22-.12-.06-.23-.22-.34-.28-.1-.06-.22-.17-.28-.22-.06-.06-.17-.23-.22-.34-.4-.34-.45-.5-.56-.67 0-.06-.12-.23-.17-.34-.1-.1-.17-.32-.17-.44-.06-.16-.06-.28-.1-.28-.24 0-.3-2.4-.07-2.8.07-.1.12-.33.18-.5.06-.17.1-.34.17-.45.1-.05.17-.22.17-.28.05-.17.28-.45.78-.95.5-.5.78-.73.95-.78.06 0 .23-.06.28-.17.1-.06.28-.1.45-.17.17-.06.4-.1.45-.17.05-.04.28-.1.4-.1zm3.02-15.34c.28-.12.34-.06.45.33l.22.38c.1.17.16.28.16.34s.06.22.12.28c.1.1.16.28.22.4.06.1.1.27.17.33.04.05.16.22.2.4 0 .16.12.27.12.33.06.05.12.16.17.28.05.16.16.33.22.44.1.17.16.28.16.34s.06.22.12.28c.1.1.16.28.22.4.06.1.1.27.17.33.04.05.16.22.2.4 0 .16.12.27.12.33.06.05.12.16.17.28.05.16.16.33.22.44.1.17.16.28.16.34s.06.22.12.28c.1.1.16.28.22.4.06.1.1.27.17.33.2.22.27.5.1.6l-.1.18h-4c-3.35 0-4.24 0-4.36-.2 0-.18.12-.35.23-.57.1-.1.22-.4.45-.8 0-.1.1-.27.16-.32 0-.05.12-.22.17-.33 0-.1.1-.28.17-.33.06-.12.1-.28.17-.4.04-.16.16-.33.2-.4 0-.04.12-.2.12-.32.06-.12.17-.28.17-.34.05-.06.16-.22.22-.34 0-.1.1-.28.16-.33 0-.05.12-.22.17-.33 0-.1.1-.28.17-.4.06-.05.1-.2.17-.33.04-.16.16-.33.2-.4 0-.04.12-.2.12-.32.06-.12.17-.28.17-.34.05-.06.16-.22.22-.34 0-.1.1-.28.16-.33 0-.05.12-.22.17-.33 0-.1.1-.28.17-.4.06-.05.1-.16.22-.2z" stroke="#fff" stroke-opacity="0" fill="#b40c4c"/><use xlink:href="#k" transform="matrix(1,0,0,1,71,-120) translate(0 14.4)"/><use xlink:href="#d" transform="matrix(1,0,0,1,71,-120) translate(56.3 14.4)"/><use xlink:href="#e" transform="matrix(1,0,0,1,71,-120) translate(101.6 14.4)"/><path d="M320 66a6 6 0 0 1 6-6h308a6 6 0 0 1 6 6v388a6 6 0 0 1-6 6H326a6 6 0 0 1-6-6z" stroke="#dd3522" stroke-width="2" fill="#fff" fill-opacity="0"/><use xlink:href="#f" transform="matrix(1,0,0,1,320,80) translate(100.07499999999999 14.4)"/><use xlink:href="#g" transform="matrix(1,0,0,1,320,80) translate(169.975 14.4)"/><path d="M220-34a6 6 0 0 1 6-6h448a6 6 0 0 1 6 6v528a6 6 0 0 1-6 6H226a6 6 0 0 1-6-6z" stroke="#248814" stroke-width="2" fill="#fff" fill-opacity="0"/><path d="M220-40h56v56h-56v-56z" stroke="#fff" stroke-opacity="0" fill="#248814"/><path d="M251.76-11.7h-1.18v-1.1c-.12-1.73-1.48-3.07-3.2-3.2-1.9-.13-3.54 1.3-3.67 3.2v1.07h-1.17c-.44 0-.8.36-.8.8v6.13c0 .44.36.8.8.8h9.23c.44 0 .8-.36.8-.8v-6.1c0-.44-.36-.8-.8-.8zm-6.4-1.06c.1-1.03 1-1.77 2-1.67.9.08 1.58.77 1.67 1.67v1.06h-3.72zM251-5.68h-7.67v-4.42h7.63z" stroke="#fff" stroke-opacity="0" fill="#fff"/><path d="M262.27-14.26c-.08-2.44-1.58-4.47-3.87-5.3-1.58-.46-3.16-.13-4.4.9-.68-1.44-1.47-2.6-2.6-3.75-3.24-3.36-7.94-4.3-12.18-2.4-4.04 1.9-6.4 5.63-6.54 10.05v.7c-3.4.98-5.66 4.08-5.5 7.65v.63c.38 4.28 3.92 7.52 8.2 7.47h26s7.42-.64 7.42-8.1c.04-3.9-2.66-7.2-6.53-7.86zM261.3.14h-25.9c-3.47.05-6.3-2.53-6.6-5.97v-.52c-.15-3.05 1.93-5.7 4.92-6.3.38-.12.63-.48.6-.9-.06-.4-.06-.73 0-1.14.07-3.78 2.1-6.94 5.52-8.6 1.25-.56 2.4-.8 3.83-.84 2.62.08 4.87 1.04 6.7 2.94 1.25 1.3 2.04 2.6 2.62 4.3.03.15.1.28.24.37.37.27.87.2 1.12-.17.83-1.18 2.25-1.67 3.62-1.3 1.8.72 2.87 2.4 2.83 4.32-.07.4.22.82.64.9 3.57.36 6.2 3.55 5.82 7.12-.3 3.13-2.7 5.52-5.82 5.85z" stroke="#fff" stroke-opacity="0" fill="#fff"/><use xlink:href="#h" transform="matrix(1,0,0,1,291,-20.000000000000057) translate(0 14.4)"/><use xlink:href="#i" transform="matrix(1,0,0,1,291,-20.000000000000057) translate(55.5 14.4)"/><use xlink:href="#j" transform="matrix(1,0,0,1,291,-20.000000000000057) translate(116.4 14.4)"/><path d="M-261.68 1000h-76.64c-.88 0-1.68-.76-1.68-1.7v-5.12c0-18.18 11.92-33.43 29.52-37.7.48-.1.88-.05 1.28.17 5.92 3.2 12.48 3.2 18.4 0 .4-.22.8-.26 1.2-.17 17.68 4.27 29.6 19.52 29.6 37.7v5.13c0 .94-.8 1.7-1.68 1.7zm-74.88-3.43h73.12v-3.4c.08-16.35-10.56-30.07-26.32-34.17-3.36 1.64-6.48 2.4-10.24 2.4s-6.88-.7-10.24-2.4c-15.76 4.1-26.4 17.82-26.32 34.18z" stroke="#fff" stroke-opacity="0" fill="#232f3e"/><path d="M-300 961.3c-3.67 0-6.8-.78-10.03-2.56-9.95-5.58-13.5-18.2-7.93-28.17 5.58-9.95 18.17-13.5 28.1-7.93 6.72 3.76 10.56 10.33 10.56 18.05 0 7.76-3.93 14.36-10.74 18.04-3.22 1.73-6.32 2.56-9.95 2.56zm0-37.83c-6.6-.17-12.26 3.18-15.44 8.96-4.5 8.4-1.4 18.8 6.94 23.34 5.4 2.93 11.36 2.93 16.77 0 5.7-3.1 9-8.68 8.96-15.2-.04-9.5-7.77-17.14-17.22-17.1z" stroke="#fff" stroke-opacity="0" fill="#232f3e"/><use xlink:href="#l" transform="matrix(1,0,0,1,-370,1009) translate(50.24691358024691 17.77777777777778)"/><path d="M760 900h120v120H760V900z" stroke="#000" stroke-opacity="0" fill="url(#m)"/><path d="M853.76 930.94v1l-3.24 24.26.16.17c5.68 3.05 8.45 5.53 8.84 7.76.24 1.07-.08 2.06-.7 2.8-.8 1-2.06 1.4-3.88 1.4-1.5 0-3.47-.32-5.84-.9l-3.16 24.52c-1.34 8.42-20.53 9.33-28.74 9.33-8.2 0-27.4-.9-28.74-9.33l-7.82-60.02v-1c0-5.77 15.63-12.2 36.56-12.2 20.92 0 36.56 6.43 36.56 12.2zm-7.82 31.62l3.24-25.43c-6.56 3.96-19.35 5.95-31.98 5.95-12.63 0-25.43-2-31.98-5.95l6.95 54.33c.47 2.97 9.24 6.1 25.03 6.1 15.8 0 24.55-3.13 25.03-6.2l3.24-25c-9.32-2.98-21.48-8.6-25.98-10.65-.64.42-1.43.75-2.3.75-2.13 0-3.87-1.82-3.87-3.96 0-2.16 1.74-3.98 3.87-3.98s3.8 1.74 3.95 3.8c4.34 1.98 15.87 7.27 24.8 10.24zm-28.74-23.2c19.58 0 32.3-4.8 32.85-8.26v-.16c-.7-2.15-11.6-8.5-32.85-8.5-21.32 0-32.14 6.43-32.85 8.5v.33c.8 3.38 13.42 8.1 32.85 8.1zm32.37 24.27c3.87 1.08 5.53 1 6.16.9-.4-.57-1.66-1.97-5.76-4.28z" stroke="#000" stroke-opacity="0" fill="#fff"/><use xlink:href="#n" transform="matrix(1,0,0,1,730,1029) translate(28.599999999999994 14.4)"/><use xlink:href="#o" transform="matrix(1,0,0,1,730,1029) translate(88.44999999999999 14.4)"/><use xlink:href="#p" transform="matrix(1,0,0,1,730,1029) translate(60.05 36)"/><path d="M147.85 973.93l-2.8-2.62L155.5 960l-10.45-11.3 2.8-2.63 11.64 12.62c.66.74.66 1.86 0 2.6z" stroke="#fff" stroke-opacity="0" fill="#d86613"/><path d="M110.6 958.08h44.8v3.84h-44.8v-3.84z" stroke="#fff" stroke-opacity="0" fill="#d86613"/><path d="M96.25 976.35C87.28 976.35 80 969.02 80 960c0-9.02 7.28-16.35 16.25-16.35 8.97 0 16.26 7.33 16.26 16.35 0 9.02-7.28 16.35-16.25 16.35zm0-28.84c-6.86 0-12.4 5.6-12.4 12.5s5.54 12.5 12.4 12.5 12.42-5.6 12.42-12.5-5.56-12.5-12.42-12.5z" stroke="#fff" stroke-opacity="0" fill="#d86613"/><use xlink:href="#q" transform="matrix(1,0,0,1,50,985.35) translate(23.981481481481488 17.77777777777778)"/><use xlink:href="#r" transform="matrix(1,0,0,1,50,985.35) translate(95.46296296296296 17.77777777777778)"/><use xlink:href="#s" transform="matrix(1,0,0,1,50,985.35) translate(29.290123456790127 44.44444444444444)"/><path d="M420 900h120v120H420V900z" stroke="#fff" stroke-opacity="0" fill="#1c7b68"/><path d="M458.03 996h-8.52v-3.17h8.53zm55.13-45.13h-15.28v3.1h12.1v38.94h-28.37v3.18h31.56zm-58.93 40.45v-37.36h26.82v-3.1h-29.92v40.46c0 .87-.78 1.6-1.62 1.6-.9 0-1.6-.73-1.6-1.6v-47.9h16.75l4.22 4.2h12.18v-3.1h-10.9l-4.24-4.2h-21.1v51.55c.13 2.62 2.38 4.6 5 4.45 2.6-.16 4.57-2.38 4.43-5zm58.93-46.8h-6.9v3.1H510v1.58h3.23zm-22.53 29.98l13.66-14.75c.2-.24.34-.56.34-.87.07-.88-.57-1.67-1.4-1.75h-6.9V946.1h-3.18v12.62c0 .87.7 1.58 1.62 1.58h4.8l-10.08 10.87-10.14-10.87h4.8c.9 0 1.6-.7 1.6-1.58v-12.6h-3.1v11h-6.82c-.35.1-.7.17-.9.4-.72.56-.86 1.6-.3 2.23l13.73 14.75c.64.64 1.62.64 2.26 0zm16.12-36.33h6.9c.63 0 1.2-.4 1.4-.95.3-.55.15-1.2-.27-1.66l-13.66-14.76c-.64-.63-1.7-.63-2.26 0l-13.73 14.76c-.42.4-.5 1.03-.28 1.66.28.56.78.88 1.4.95h6.9v13.65h3.18V936.6c0-.88-.7-1.6-1.55-1.6h-4.86L500 924.2l10.13 10.88h-4.86c-.84 0-1.55.7-1.55 1.6v15.22h3.17zm-26.6 56.8v-7.86c0-2.52-2.13-4.67-4.73-4.67H464.3c-2.54 0-4.65 2.15-4.65 4.7v7.84c0 2.62 2.1 4.68 4.64 4.68h11.12c2.6 0 4.72-2.06 4.72-4.68zm-4.73-9.44c.9 0 1.62.8 1.62 1.67v7.77c0 .87-.7 1.58-1.62 1.58H464.3c-.85 0-1.56-.7-1.56-1.58v-7.86c0-.86.7-1.57 1.55-1.57zm1.62-5.47c0-2.7-2.25-5-5-5h-4.16c-2.74 0-5 2.3-5 5v3.17h3.1v-3.17c0-1.04.85-1.83 1.9-1.83h4.16c1.06 0 1.83.8 1.83 1.83v3.17h3.24z" stroke="#fff" stroke-opacity="0" fill="#fff"/><use xlink:href="#t" transform="matrix(1,0,0,1,390,1029) translate(5.15432098765433 17.77777777777778)"/><use xlink:href="#u" transform="matrix(1,0,0,1,390,1029) translate(61.08024691358025 17.77777777777778)"/><use xlink:href="#v" transform="matrix(1,0,0,1,390,1029) translate(148.98148148148147 17.77777777777778)"/><use xlink:href="#w" transform="matrix(1,0,0,1,390,1029) translate(61.66666666666667 44.44444444444444)"/><path d="M160.5 960h243.12" stroke="#3a414a" fill="none"/><path d="M160.5 960.48h-.7l.2-.48-.2-.48h.7z" stroke="#3a414a" stroke-width=".05" fill="#3a414a"/><path d="M418.38 960l-14.26 4.63v-9.26z" stroke="#3a414a" fill="#3a414a"/><path d="M540.5 960h203.12" stroke="#3a414a" fill="none"/><path d="M540.5 960.48h-.5v-.96h.5z" stroke="#3a414a" stroke-width=".05" fill="#3a414a"/><path d="M758.38 960l-14.26 4.63v-9.26z" stroke="#3a414a" fill="#3a414a"/><path d="M-278.13 960H63.62" stroke="#3a414a" fill="none"/><path stroke="#3a414a" stroke-width=".05" fill="#3a414a"/><path d="M78.38 960l-14.27 4.63.02-9.26z" stroke="#3a414a" fill="#3a414a"/><path d="M-261.68 260h-76.64c-.88 0-1.68-.76-1.68-1.7v-5.12c0-18.18 11.92-33.43 29.52-37.7.48-.1.88-.05 1.28.17 5.92 3.2 12.48 3.2 18.4 0 .4-.22.8-.26 1.2-.18 17.68 4.28 29.6 19.53 29.6 37.7v5.14c0 .94-.8 1.7-1.68 1.7zm-74.88-3.43h73.12v-3.4c.08-16.35-10.56-30.07-26.32-34.17-3.36 1.65-6.48 2.4-10.24 2.4s-6.88-.7-10.24-2.4c-15.76 4.1-26.4 17.82-26.32 34.18z" stroke="#fff" stroke-opacity="0" fill="#232f3e"/><path d="M-300 221.3c-3.67 0-6.8-.8-10.03-2.56-9.95-5.58-13.5-18.2-7.93-28.17 5.58-9.95 18.17-13.5 28.1-7.93 6.72 3.76 10.56 10.33 10.56 18.05 0 7.76-3.93 14.36-10.74 18.04-3.22 1.73-6.32 2.56-9.95 2.56zm0-37.83c-6.6-.17-12.26 3.18-15.44 8.96-4.5 8.38-1.4 18.8 6.94 23.34 5.4 2.93 11.36 2.93 16.77 0 5.7-3.1 9-8.68 8.96-15.2-.04-9.5-7.77-17.14-17.22-17.1z" stroke="#fff" stroke-opacity="0" fill="#232f3e"/><g><use xlink:href="#x" transform="matrix(1,0,0,1,-370,269) translate(45.98765432098766 17.77777777777778)"/></g><path d="M147.85 233.93l-2.8-2.62L155.5 220l-10.45-11.3 2.8-2.63 11.64 12.62c.66.74.66 1.86 0 2.6z" stroke="#fff" stroke-opacity="0" fill="#d86613"/><path d="M110.6 218.08h44.8v3.84h-44.8v-3.84z" stroke="#fff" stroke-opacity="0" fill="#d86613"/><path d="M96.25 236.35C87.28 236.35 80 229.03 80 220c0-9.03 7.28-16.35 16.25-16.35 8.97 0 16.26 7.32 16.26 16.35 0 9.03-7.28 16.35-16.25 16.35zm0-28.84c-6.86 0-12.4 5.6-12.4 12.5s5.54 12.5 12.4 12.5 12.42-5.6 12.42-12.5-5.56-12.5-12.42-12.5z" stroke="#fff" stroke-opacity="0" fill="#d86613"/><g><use xlink:href="#q" transform="matrix(1,0,0,1,50,245.35000000000002) translate(23.981481481481488 17.77777777777778)"/><use xlink:href="#r" transform="matrix(1,0,0,1,50,245.35000000000002) translate(95.46296296296296 17.77777777777778)"/><use xlink:href="#s" transform="matrix(1,0,0,1,50,245.35000000000002) translate(29.290123456790127 44.44444444444444)"/></g><path d="M420 160h120v120H420V160z" stroke="#fff" stroke-opacity="0" fill="#1c7b68"/><path d="M458.03 256h-8.52v-3.17h8.53zm55.13-45.13h-15.28v3.1h12.1v38.94h-28.37v3.18h31.56zm-58.93 40.45v-37.36h26.82v-3.1h-29.92v40.46c0 .87-.78 1.6-1.62 1.6-.9 0-1.6-.73-1.6-1.6v-47.9h16.75l4.22 4.2h12.18v-3.1h-10.9l-4.24-4.2h-21.1v51.56c.13 2.6 2.38 4.6 5 4.44 2.6-.16 4.57-2.38 4.43-5zm58.93-46.8h-6.9v3.1H510v1.58h3.23zm-22.53 29.98l13.66-14.75c.2-.24.34-.56.34-.87.07-.88-.57-1.67-1.4-1.75h-6.9V206.1h-3.18v12.62c0 .87.7 1.6 1.62 1.6h4.8l-10.08 10.85-10.14-10.86h4.8c.9 0 1.6-.7 1.6-1.58v-12.6h-3.1v11h-6.82c-.35.1-.7.17-.9.4-.72.56-.86 1.6-.3 2.23l13.73 14.75c.64.64 1.62.64 2.26 0zm16.12-36.33h6.9c.63 0 1.2-.4 1.4-.95.3-.55.15-1.2-.27-1.66l-13.66-14.76c-.64-.63-1.7-.63-2.26 0l-13.73 14.76c-.42.4-.5 1.03-.28 1.66.28.56.78.88 1.4.95h6.9v13.65h3.18V196.6c0-.88-.7-1.6-1.55-1.6h-4.86L500 184.2l10.13 10.88h-4.86c-.84 0-1.55.7-1.55 1.6v15.22h3.17zm-26.6 56.8v-7.85c0-2.54-2.13-4.7-4.73-4.7l-11.13.02c-2.54 0-4.65 2.14-4.65 4.68v7.85c0 2.62 2.1 4.68 4.64 4.68h11.12c2.6 0 4.72-2.06 4.72-4.68zm-4.73-9.44c.9 0 1.62.8 1.62 1.66v7.77c0 .87-.7 1.58-1.62 1.58H464.3c-.85 0-1.56-.7-1.56-1.58v-7.85c0-.88.7-1.6 1.55-1.6zm1.62-5.47c0-2.7-2.25-5-5-5h-4.16c-2.74 0-5 2.3-5 5v3.17h3.1v-3.17c0-1.04.85-1.83 1.9-1.83h4.16c1.06 0 1.83.8 1.83 1.83v3.17h3.24z" stroke="#fff" stroke-opacity="0" fill="#fff"/><g><use xlink:href="#t" transform="matrix(1,0,0,1,390,289) translate(5.15432098765433 17.77777777777778)"/><use xlink:href="#u" transform="matrix(1,0,0,1,390,289) translate(61.08024691358025 17.77777777777778)"/><use xlink:href="#v" transform="matrix(1,0,0,1,390,289) translate(148.98148148148147 17.77777777777778)"/><use xlink:href="#w" transform="matrix(1,0,0,1,390,289) translate(61.66666666666667 44.44444444444444)"/></g><path d="M160.5 220h243.12" stroke="#3a414a" fill="none"/><path d="M160.5 220.47h-.7l.2-.47-.2-.47h.7z" stroke="#3a414a" stroke-width=".05" fill="#3a414a"/><path d="M418.38 220l-14.26 4.63v-9.26z" stroke="#3a414a" fill="#3a414a"/><path d="M-278.13 220H63.62" stroke="#3a414a" fill="none"/><path stroke="#3a414a" stroke-width=".05" fill="#3a414a"/><path d="M78.38 220l-14.27 4.63.02-9.26z" stroke="#3a414a" fill="#3a414a"/><path d="M540.5 220H814a6 6 0 0 1 6 6v657.62" stroke="#3a414a" fill="none"/><path d="M540.5 220.47h-.5v-.94h.5z" stroke="#3a414a" stroke-width=".05" fill="#3a414a"/><path d="M820 898.38l-4.63-14.26h9.26z" stroke="#3a414a" fill="#3a414a"/><defs><path fill="#232f3e" d="M205 0l-28-72H64L36 0H1l101-248h38L239 0h-34zm-38-99l-47-123c-12 45-31 82-46 123h93" id="y"/><path fill="#232f3e" d="M266 0h-40l-56-210L115 0H75L2-248h35L96-30l15-64 43-154h32l59 218 59-218h35" id="z"/><path fill="#232f3e" d="M185-189c-5-48-123-54-124 2 14 75 158 14 163 119 3 78-121 87-175 55-17-10-28-26-33-46l33-7c5 56 141 63 141-1 0-78-155-14-162-118-5-82 145-84 179-34 5 7 8 16 11 25" id="A"/><g id="a"><use transform="matrix(0.05,0,0,0.05,0,0)" xlink:href="#y"/><use transform="matrix(0.05,0,0,0.05,11.35,0)" xlink:href="#z"/><use transform="matrix(0.05,0,0,0.05,28.299999999999997,0)" xlink:href="#A"/></g><path fill="#232f3e" d="M212-179c-10-28-35-45-73-45-59 0-87 40-87 99 0 60 29 101 89 101 43 0 62-24 78-52l27 14C228-24 195 4 139 4 59 4 22-46 18-125c-6-104 99-153 187-111 19 9 31 26 39 46" id="B"/><path fill="#232f3e" d="M24 0v-261h32V0H24" id="C"/><path fill="#232f3e" d="M100-194c62-1 85 37 85 99 1 63-27 99-86 99S16-35 15-95c0-66 28-99 85-99zM99-20c44 1 53-31 53-75 0-43-8-75-51-75s-53 32-53 75 10 74 51 75" id="D"/><path fill="#232f3e" d="M84 4C-5 8 30-112 23-190h32v120c0 31 7 50 39 49 72-2 45-101 50-169h31l1 190h-30c-1-10 1-25-2-33-11 22-28 36-60 37" id="E"/><path fill="#232f3e" d="M85-194c31 0 48 13 60 33l-1-100h32l1 261h-30c-2-10 0-23-3-31C134-8 116 4 85 4 32 4 16-35 15-94c0-66 23-100 70-100zm9 24c-40 0-46 34-46 75 0 40 6 74 45 74 42 0 51-32 51-76 0-42-9-74-50-73" id="F"/><g id="b"><use transform="matrix(0.05,0,0,0.05,0,0)" xlink:href="#B"/><use transform="matrix(0.05,0,0,0.05,12.950000000000001,0)" xlink:href="#C"/><use transform="matrix(0.05,0,0,0.05,16.900000000000002,0)" xlink:href="#D"/><use transform="matrix(0.05,0,0,0.05,26.900000000000002,0)" xlink:href="#E"/><use transform="matrix(0.05,0,0,0.05,36.900000000000006,0)" xlink:href="#F"/></g><path fill="#b40c4c" d="M160-131c35 5 61 23 61 61C221 17 115-2 30 0v-248c76 3 177-17 177 60 0 33-19 50-47 57zm-97-11c50-1 110 9 110-42 0-47-63-36-110-37v79zm0 115c55-2 124 14 124-45 0-56-70-42-124-44v89" id="G"/><path fill="#b40c4c" d="M100-194c62-1 85 37 85 99 1 63-27 99-86 99S16-35 15-95c0-66 28-99 85-99zM99-20c44 1 53-31 53-75 0-43-8-75-51-75s-53 32-53 75 10 74 51 75" id="H"/><path fill="#b40c4c" d="M115-194c53 0 69 39 70 98 0 66-23 100-70 100C84 3 66-7 56-30L54 0H23l1-261h32v101c10-23 28-34 59-34zm-8 174c40 0 45-34 45-75 0-40-5-75-45-74-42 0-51 32-51 76 0 43 10 73 51 73" id="I"/><path fill="#b40c4c" d="M47-170H22l-4-78h33" id="J"/><path fill="#b40c4c" d="M135-143c-3-34-86-38-87 0 15 53 115 12 119 90S17 21 10-45l28-5c4 36 97 45 98 0-10-56-113-15-118-90-4-57 82-63 122-42 12 7 21 19 24 35" id="K"/><g id="c"><use transform="matrix(0.05,0,0,0.05,0,0)" xlink:href="#G"/><use transform="matrix(0.05,0,0,0.05,12,0)" xlink:href="#H"/><use transform="matrix(0.05,0,0,0.05,22,0)" xlink:href="#I"/><use transform="matrix(0.05,0,0,0.05,32,0)" xlink:href="#J"/><use transform="matrix(0.05,0,0,0.05,35.4,0)" xlink:href="#K"/></g><path fill="#b40c4c" d="M205 0l-28-72H64L36 0H1l101-248h38L239 0h-34zm-38-99l-47-123c-12 45-31 82-46 123h93" id="L"/><path fill="#b40c4c" d="M266 0h-40l-56-210L115 0H75L2-248h35L96-30l15-64 43-154h32l59 218 59-218h35" id="M"/><path fill="#b40c4c" d="M185-189c-5-48-123-54-124 2 14 75 158 14 163 119 3 78-121 87-175 55-17-10-28-26-33-46l33-7c5 56 141 63 141-1 0-78-155-14-162-118-5-82 145-84 179-34 5 7 8 16 11 25" id="N"/><g id="d"><use transform="matrix(0.05,0,0,0.05,0,0)" xlink:href="#L"/><use transform="matrix(0.05,0,0,0.05,11.35,0)" xlink:href="#M"/><use transform="matrix(0.05,0,0,0.05,28.299999999999997,0)" xlink:href="#N"/></g><path fill="#b40c4c" d="M96-169c-40 0-48 33-48 73s9 75 48 75c24 0 41-14 43-38l32 2c-6 37-31 61-74 61-59 0-76-41-82-99-10-93 101-131 147-64 4 7 5 14 7 22l-32 3c-4-21-16-35-41-35" id="O"/><path fill="#b40c4c" d="M84 4C-5 8 30-112 23-190h32v120c0 31 7 50 39 49 72-2 45-101 50-169h31l1 190h-30c-1-10 1-25-2-33-11 22-28 36-60 37" id="P"/><path fill="#b40c4c" d="M117-194c89-4 53 116 60 194h-32v-121c0-31-8-49-39-48C34-167 62-67 57 0H25l-1-190h30c1 10-1 24 2 32 11-22 29-35 61-36" id="Q"/><path fill="#b40c4c" d="M59-47c-2 24 18 29 38 22v24C64 9 27 4 27-40v-127H5v-23h24l9-43h21v43h35v23H59v120" id="R"/><g id="e"><use transform="matrix(0.05,0,0,0.05,0,0)" xlink:href="#L"/><use transform="matrix(0.05,0,0,0.05,12,0)" xlink:href="#O"/><use transform="matrix(0.05,0,0,0.05,21,0)" xlink:href="#O"/><use transform="matrix(0.05,0,0,0.05,30,0)" xlink:href="#H"/><use transform="matrix(0.05,0,0,0.05,40,0)" xlink:href="#P"/><use transform="matrix(0.05,0,0,0.05,50,0)" xlink:href="#Q"/><use transform="matrix(0.05,0,0,0.05,60,0)" xlink:href="#R"/></g><path fill="#dd3522" d="M185-189c-5-48-123-54-124 2 14 75 158 14 163 119 3 78-121 87-175 55-17-10-28-26-33-46l33-7c5 56 141 63 141-1 0-78-155-14-162-118-5-82 145-84 179-34 5 7 8 16 11 25" id="S"/><path fill="#dd3522" d="M100-194c63 0 86 42 84 106H49c0 40 14 67 53 68 26 1 43-12 49-29l28 8c-11 28-37 45-77 45C44 4 14-33 15-96c1-61 26-98 85-98zm52 81c6-60-76-77-97-28-3 7-6 17-6 28h103" id="T"/><path fill="#dd3522" d="M96-169c-40 0-48 33-48 73s9 75 48 75c24 0 41-14 43-38l32 2c-6 37-31 61-74 61-59 0-76-41-82-99-10-93 101-131 147-64 4 7 5 14 7 22l-32 3c-4-21-16-35-41-35" id="U"/><path fill="#dd3522" d="M84 4C-5 8 30-112 23-190h32v120c0 31 7 50 39 49 72-2 45-101 50-169h31l1 190h-30c-1-10 1-25-2-33-11 22-28 36-60 37" id="V"/><path fill="#dd3522" d="M114-163C36-179 61-72 57 0H25l-1-190h30c1 12-1 29 2 39 6-27 23-49 58-41v29" id="W"/><path fill="#dd3522" d="M24-231v-30h32v30H24zM24 0v-190h32V0H24" id="X"/><path fill="#dd3522" d="M59-47c-2 24 18 29 38 22v24C64 9 27 4 27-40v-127H5v-23h24l9-43h21v43h35v23H59v120" id="Y"/><path fill="#dd3522" d="M179-190L93 31C79 59 56 82 12 73V49c39 6 53-20 64-50L1-190h34L92-34l54-156h33" id="Z"/><g id="f"><use transform="matrix(0.05,0,0,0.05,0,0)" xlink:href="#S"/><use transform="matrix(0.05,0,0,0.05,12,0)" xlink:href="#T"/><use transform="matrix(0.05,0,0,0.05,22,0)" xlink:href="#U"/><use transform="matrix(0.05,0,0,0.05,31,0)" xlink:href="#V"/><use transform="matrix(0.05,0,0,0.05,41,0)" xlink:href="#W"/><use transform="matrix(0.05,0,0,0.05,46.95,0)" xlink:href="#X"/><use transform="matrix(0.05,0,0,0.05,50.900000000000006,0)" xlink:href="#Y"/><use transform="matrix(0.05,0,0,0.05,55.900000000000006,0)" xlink:href="#Z"/></g><path fill="#dd3522" d="M143 4C61 4 22-44 18-125c-5-107 100-154 193-111 17 8 29 25 37 43l-32 9c-13-25-37-40-76-40-61 0-88 39-88 99 0 61 29 100 91 101 35 0 62-11 79-27v-45h-74v-28h105v86C228-13 192 4 143 4" id="aa"/><path fill="#dd3522" d="M100-194c62-1 85 37 85 99 1 63-27 99-86 99S16-35 15-95c0-66 28-99 85-99zM99-20c44 1 53-31 53-75 0-43-8-75-51-75s-53 32-53 75 10 74 51 75" id="ab"/><path fill="#dd3522" d="M115-194c55 1 70 41 70 98S169 2 115 4C84 4 66-9 55-30l1 105H24l-1-265h31l2 30c10-21 28-34 59-34zm-8 174c40 0 45-34 45-75s-6-73-45-74c-42 0-51 32-51 76 0 43 10 73 51 73" id="ac"/><g id="g"><use transform="matrix(0.05,0,0,0.05,0,0)" xlink:href="#aa"/><use transform="matrix(0.05,0,0,0.05,14,0)" xlink:href="#W"/><use transform="matrix(0.05,0,0,0.05,19.95,0)" xlink:href="#ab"/><use transform="matrix(0.05,0,0,0.05,29.950000000000003,0)" xlink:href="#V"/><use transform="matrix(0.05,0,0,0.05,39.95,0)" xlink:href="#ac"/></g><path fill="#248814" d="M137 0h-34L2-248h35l83 218 83-218h36" id="ad"/><path fill="#248814" d="M24-231v-30h32v30H24zM24 0v-190h32V0H24" id="ae"/><path fill="#248814" d="M114-163C36-179 61-72 57 0H25l-1-190h30c1 12-1 29 2 39 6-27 23-49 58-41v29" id="af"/><path fill="#248814" d="M59-47c-2 24 18 29 38 22v24C64 9 27 4 27-40v-127H5v-23h24l9-43h21v43h35v23H59v120" id="ag"/><path fill="#248814" d="M84 4C-5 8 30-112 23-190h32v120c0 31 7 50 39 49 72-2 45-101 50-169h31l1 190h-30c-1-10 1-25-2-33-11 22-28 36-60 37" id="ah"/><path fill="#248814" d="M141-36C126-15 110 5 73 4 37 3 15-17 15-53c-1-64 63-63 125-63 3-35-9-54-41-54-24 1-41 7-42 31l-33-3c5-37 33-52 76-52 45 0 72 20 72 64v82c-1 20 7 32 28 27v20c-31 9-61-2-59-35zM48-53c0 20 12 33 32 33 41-3 63-29 60-74-43 2-92-5-92 41" id="ai"/><path fill="#248814" d="M24 0v-261h32V0H24" id="aj"/><g id="h"><use transform="matrix(0.05,0,0,0.05,0,0)" xlink:href="#ad"/><use transform="matrix(0.05,0,0,0.05,11.65,0)" xlink:href="#ae"/><use transform="matrix(0.05,0,0,0.05,15.600000000000001,0)" xlink:href="#af"/><use transform="matrix(0.05,0,0,0.05,21.55,0)" xlink:href="#ag"/><use transform="matrix(0.05,0,0,0.05,26.55,0)" xlink:href="#ah"/><use transform="matrix(0.05,0,0,0.05,36.55,0)" xlink:href="#ai"/><use transform="matrix(0.05,0,0,0.05,46.55,0)" xlink:href="#aj"/></g><path fill="#248814" d="M30-248c87 1 191-15 191 75 0 78-77 80-158 76V0H30v-248zm33 125c57 0 124 11 124-50 0-59-68-47-124-48v98" id="ak"/><path fill="#248814" d="M108 0H70L1-190h34L89-25l56-165h34" id="al"/><path fill="#248814" d="M100-194c63 0 86 42 84 106H49c0 40 14 67 53 68 26 1 43-12 49-29l28 8c-11 28-37 45-77 45C44 4 14-33 15-96c1-61 26-98 85-98zm52 81c6-60-76-77-97-28-3 7-6 17-6 28h103" id="am"/><g id="i"><use transform="matrix(0.05,0,0,0.05,0,0)" xlink:href="#ak"/><use transform="matrix(0.05,0,0,0.05,12,0)" xlink:href="#af"/><use transform="matrix(0.05,0,0,0.05,17.95,0)" xlink:href="#ae"/><use transform="matrix(0.05,0,0,0.05,21.9,0)" xlink:href="#al"/><use transform="matrix(0.05,0,0,0.05,30.899999999999995,0)" xlink:href="#ai"/><use transform="matrix(0.05,0,0,0.05,40.9,0)" xlink:href="#ag"/><use transform="matrix(0.05,0,0,0.05,45.9,0)" xlink:href="#am"/></g><path fill="#248814" d="M212-179c-10-28-35-45-73-45-59 0-87 40-87 99 0 60 29 101 89 101 43 0 62-24 78-52l27 14C228-24 195 4 139 4 59 4 22-46 18-125c-6-104 99-153 187-111 19 9 31 26 39 46" id="an"/><path fill="#248814" d="M100-194c62-1 85 37 85 99 1 63-27 99-86 99S16-35 15-95c0-66 28-99 85-99zM99-20c44 1 53-31 53-75 0-43-8-75-51-75s-53 32-53 75 10 74 51 75" id="ao"/><path fill="#248814" d="M85-194c31 0 48 13 60 33l-1-100h32l1 261h-30c-2-10 0-23-3-31C134-8 116 4 85 4 32 4 16-35 15-94c0-66 23-100 70-100zm9 24c-40 0-46 34-46 75 0 40 6 74 45 74 42 0 51-32 51-76 0-42-9-74-50-73" id="ap"/><g id="j"><use transform="matrix(0.05,0,0,0.05,0,0)" xlink:href="#an"/><use transform="matrix(0.05,0,0,0.05,12.950000000000001,0)" xlink:href="#aj"/><use transform="matrix(0.05,0,0,0.05,16.900000000000002,0)" xlink:href="#ao"/><use transform="matrix(0.05,0,0,0.05,26.900000000000002,0)" xlink:href="#ah"/><use transform="matrix(0.05,0,0,0.05,36.900000000000006,0)" xlink:href="#ap"/></g><path fill="#b40c4c" d="M24 0v-261h32V0H24" id="aq"/><path fill="#b40c4c" d="M24-231v-30h32v30H24zM24 0v-190h32V0H24" id="ar"/><path fill="#b40c4c" d="M100-194c63 0 86 42 84 106H49c0 40 14 67 53 68 26 1 43-12 49-29l28 8c-11 28-37 45-77 45C44 4 14-33 15-96c1-61 26-98 85-98zm52 81c6-60-76-77-97-28-3 7-6 17-6 28h103" id="as"/><g id="k"><use transform="matrix(0.05,0,0,0.05,0,0)" xlink:href="#L"/><use transform="matrix(0.05,0,0,0.05,12,0)" xlink:href="#aq"/><use transform="matrix(0.05,0,0,0.05,15.949999999999998,0)" xlink:href="#ar"/><use transform="matrix(0.05,0,0,0.05,19.9,0)" xlink:href="#O"/><use transform="matrix(0.05,0,0,0.05,28.899999999999995,0)" xlink:href="#as"/><use transform="matrix(0.05,0,0,0.05,38.9,0)" xlink:href="#J"/><use transform="matrix(0.05,0,0,0.05,42.3,0)" xlink:href="#K"/></g><path fill="#3a414a" d="M160-131c35 5 61 23 61 61C221 17 115-2 30 0v-248c76 3 177-17 177 60 0 33-19 50-47 57zm-97-11c50-1 110 9 110-42 0-47-63-36-110-37v79zm0 115c55-2 124 14 124-45 0-56-70-42-124-44v89" id="at"/><path fill="#3a414a" d="M100-194c62-1 85 37 85 99 1 63-27 99-86 99S16-35 15-95c0-66 28-99 85-99zM99-20c44 1 53-31 53-75 0-43-8-75-51-75s-53 32-53 75 10 74 51 75" id="au"/><path fill="#3a414a" d="M115-194c53 0 69 39 70 98 0 66-23 100-70 100C84 3 66-7 56-30L54 0H23l1-261h32v101c10-23 28-34 59-34zm-8 174c40 0 45-34 45-75 0-40-5-75-45-74-42 0-51 32-51 76 0 43 10 73 51 73" id="av"/><g id="l"><use transform="matrix(0.06172839506172839,0,0,0.06172839506172839,0,0)" xlink:href="#at"/><use transform="matrix(0.06172839506172839,0,0,0.06172839506172839,14.814814814814813,0)" xlink:href="#au"/><use transform="matrix(0.06172839506172839,0,0,0.06172839506172839,27.160493827160494,0)" xlink:href="#av"/></g><linearGradient gradientUnits="userSpaceOnUse" id="m" x1="760" y1="1020" x2="880" y2="900"><stop offset="0%" stop-color="#1b660f"/><stop offset="100%" stop-color="#6cae3e"/></linearGradient><path d="M185-189c-5-48-123-54-124 2 14 75 158 14 163 119 3 78-121 87-175 55-17-10-28-26-33-46l33-7c5 56 141 63 141-1 0-78-155-14-162-118-5-82 145-84 179-34 5 7 8 16 11 25" id="aw"/><path d="M24-231v-30h32v30H24zM24 0v-190h32V0H24" id="ax"/><path d="M210-169c-67 3-38 105-44 169h-31v-121c0-29-5-50-35-48C34-165 62-65 56 0H25l-1-190h30c1 10-1 24 2 32 10-44 99-50 107 0 11-21 27-35 58-36 85-2 47 119 55 194h-31v-121c0-29-5-49-35-48" id="ay"/><path d="M115-194c55 1 70 41 70 98S169 2 115 4C84 4 66-9 55-30l1 105H24l-1-265h31l2 30c10-21 28-34 59-34zm-8 174c40 0 45-34 45-75s-6-73-45-74c-42 0-51 32-51 76 0 43 10 73 51 73" id="az"/><path d="M24 0v-261h32V0H24" id="aA"/><path d="M100-194c63 0 86 42 84 106H49c0 40 14 67 53 68 26 1 43-12 49-29l28 8c-11 28-37 45-77 45C44 4 14-33 15-96c1-61 26-98 85-98zm52 81c6-60-76-77-97-28-3 7-6 17-6 28h103" id="aB"/><g id="n"><use transform="matrix(0.05,0,0,0.05,0,0)" xlink:href="#aw"/><use transform="matrix(0.05,0,0,0.05,12,0)" xlink:href="#ax"/><use transform="matrix(0.05,0,0,0.05,15.949999999999998,0)" xlink:href="#ay"/><use transform="matrix(0.05,0,0,0.05,30.899999999999995,0)" xlink:href="#az"/><use transform="matrix(0.05,0,0,0.05,40.9,0)" xlink:href="#aA"/><use transform="matrix(0.05,0,0,0.05,44.85,0)" xlink:href="#aB"/></g><path d="M59-47c-2 24 18 29 38 22v24C64 9 27 4 27-40v-127H5v-23h24l9-43h21v43h35v23H59v120" id="aC"/><path d="M100-194c62-1 85 37 85 99 1 63-27 99-86 99S16-35 15-95c0-66 28-99 85-99zM99-20c44 1 53-31 53-75 0-43-8-75-51-75s-53 32-53 75 10 74 51 75" id="aD"/><path d="M114-163C36-179 61-72 57 0H25l-1-190h30c1 12-1 29 2 39 6-27 23-49 58-41v29" id="aE"/><path d="M141-36C126-15 110 5 73 4 37 3 15-17 15-53c-1-64 63-63 125-63 3-35-9-54-41-54-24 1-41 7-42 31l-33-3c5-37 33-52 76-52 45 0 72 20 72 64v82c-1 20 7 32 28 27v20c-31 9-61-2-59-35zM48-53c0 20 12 33 32 33 41-3 63-29 60-74-43 2-92-5-92 41" id="aF"/><path d="M177-190C167-65 218 103 67 71c-23-6-38-20-44-43l32-5c15 47 100 32 89-28v-30C133-14 115 1 83 1 29 1 15-40 15-95c0-56 16-97 71-98 29-1 48 16 59 35 1-10 0-23 2-32h30zM94-22c36 0 50-32 50-73 0-42-14-75-50-75-39 0-46 34-46 75s6 73 46 73" id="aG"/><g id="o"><use transform="matrix(0.05,0,0,0.05,0,0)" xlink:href="#aw"/><use transform="matrix(0.05,0,0,0.05,12,0)" xlink:href="#aC"/><use transform="matrix(0.05,0,0,0.05,17,0)" xlink:href="#aD"/><use transform="matrix(0.05,0,0,0.05,27,0)" xlink:href="#aE"/><use transform="matrix(0.05,0,0,0.05,32.95,0)" xlink:href="#aF"/><use transform="matrix(0.05,0,0,0.05,42.95,0)" xlink:href="#aG"/><use transform="matrix(0.05,0,0,0.05,52.95,0)" xlink:href="#aB"/></g><path d="M108 0H70L1-190h34L89-25l56-165h34" id="aH"/><path d="M96-169c-40 0-48 33-48 73s9 75 48 75c24 0 41-14 43-38l32 2c-6 37-31 61-74 61-59 0-76-41-82-99-10-93 101-131 147-64 4 7 5 14 7 22l-32 3c-4-21-16-35-41-35" id="aI"/><g id="p"><use transform="matrix(0.05,0,0,0.05,0,0)" xlink:href="#aw"/><use transform="matrix(0.05,0,0,0.05,12,0)" xlink:href="#aB"/><use transform="matrix(0.05,0,0,0.05,22,0)" xlink:href="#aE"/><use transform="matrix(0.05,0,0,0.05,27.950000000000003,0)" xlink:href="#aH"/><use transform="matrix(0.05,0,0,0.05,36.95,0)" xlink:href="#ax"/><use transform="matrix(0.05,0,0,0.05,40.900000000000006,0)" xlink:href="#aI"/><use transform="matrix(0.05,0,0,0.05,49.900000000000006,0)" xlink:href="#aB"/></g><path fill="#3a414a" d="M30 0v-248h187v28H63v79h144v27H63v87h162V0H30" id="aJ"/><path fill="#3a414a" d="M24 0v-261h32V0H24" id="aK"/><path fill="#3a414a" d="M141-36C126-15 110 5 73 4 37 3 15-17 15-53c-1-64 63-63 125-63 3-35-9-54-41-54-24 1-41 7-42 31l-33-3c5-37 33-52 76-52 45 0 72 20 72 64v82c-1 20 7 32 28 27v20c-31 9-61-2-59-35zM48-53c0 20 12 33 32 33 41-3 63-29 60-74-43 2-92-5-92 41" id="aL"/><path fill="#3a414a" d="M135-143c-3-34-86-38-87 0 15 53 115 12 119 90S17 21 10-45l28-5c4 36 97 45 98 0-10-56-113-15-118-90-4-57 82-63 122-42 12 7 21 19 24 35" id="aM"/><path fill="#3a414a" d="M59-47c-2 24 18 29 38 22v24C64 9 27 4 27-40v-127H5v-23h24l9-43h21v43h35v23H59v120" id="aN"/><path fill="#3a414a" d="M24-231v-30h32v30H24zM24 0v-190h32V0H24" id="aO"/><path fill="#3a414a" d="M96-169c-40 0-48 33-48 73s9 75 48 75c24 0 41-14 43-38l32 2c-6 37-31 61-74 61-59 0-76-41-82-99-10-93 101-131 147-64 4 7 5 14 7 22l-32 3c-4-21-16-35-41-35" id="aP"/><g id="q"><use transform="matrix(0.06172839506172839,0,0,0.06172839506172839,0,0)" xlink:href="#aJ"/><use transform="matrix(0.06172839506172839,0,0,0.06172839506172839,14.814814814814813,0)" xlink:href="#aK"/><use transform="matrix(0.06172839506172839,0,0,0.06172839506172839,19.691358024691354,0)" xlink:href="#aL"/><use transform="matrix(0.06172839506172839,0,0,0.06172839506172839,32.03703703703703,0)" xlink:href="#aM"/><use transform="matrix(0.06172839506172839,0,0,0.06172839506172839,43.14814814814814,0)" xlink:href="#aN"/><use transform="matrix(0.06172839506172839,0,0,0.06172839506172839,49.32098765432098,0)" xlink:href="#aO"/><use transform="matrix(0.06172839506172839,0,0,0.06172839506172839,54.197530864197525,0)" xlink:href="#aP"/></g><path fill="#3a414a" d="M33 0v-248h34V0H33" id="aQ"/><path fill="#3a414a" d="M30-248c87 1 191-15 191 75 0 78-77 80-158 76V0H30v-248zm33 125c57 0 124 11 124-50 0-59-68-47-124-48v98" id="aR"/><g id="r"><use transform="matrix(0.06172839506172839,0,0,0.06172839506172839,0,0)" xlink:href="#aQ"/><use transform="matrix(0.06172839506172839,0,0,0.06172839506172839,6.172839506172839,0)" xlink:href="#aR"/></g><path fill="#3a414a" d="M205 0l-28-72H64L36 0H1l101-248h38L239 0h-34zm-38-99l-47-123c-12 45-31 82-46 123h93" id="aS"/><path fill="#3a414a" d="M85-194c31 0 48 13 60 33l-1-100h32l1 261h-30c-2-10 0-23-3-31C134-8 116 4 85 4 32 4 16-35 15-94c0-66 23-100 70-100zm9 24c-40 0-46 34-46 75 0 40 6 74 45 74 42 0 51-32 51-76 0-42-9-74-50-73" id="aT"/><path fill="#3a414a" d="M114-163C36-179 61-72 57 0H25l-1-190h30c1 12-1 29 2 39 6-27 23-49 58-41v29" id="aU"/><path fill="#3a414a" d="M100-194c63 0 86 42 84 106H49c0 40 14 67 53 68 26 1 43-12 49-29l28 8c-11 28-37 45-77 45C44 4 14-33 15-96c1-61 26-98 85-98zm52 81c6-60-76-77-97-28-3 7-6 17-6 28h103" id="aV"/><g id="s"><use transform="matrix(0.06172839506172839,0,0,0.06172839506172839,0,0)" xlink:href="#aS"/><use transform="matrix(0.06172839506172839,0,0,0.06172839506172839,14.814814814814813,0)" xlink:href="#aT"/><use transform="matrix(0.06172839506172839,0,0,0.06172839506172839,27.160493827160494,0)" xlink:href="#aT"/><use transform="matrix(0.06172839506172839,0,0,0.06172839506172839,39.50617283950617,0)" xlink:href="#aU"/><use transform="matrix(0.06172839506172839,0,0,0.06172839506172839,46.85185185185185,0)" xlink:href="#aV"/><use transform="matrix(0.06172839506172839,0,0,0.06172839506172839,59.197530864197525,0)" xlink:href="#aM"/><use transform="matrix(0.06172839506172839,0,0,0.06172839506172839,70.30864197530863,0)" xlink:href="#aM"/></g><path fill="#3a414a" d="M266 0h-40l-56-210L115 0H75L2-248h35L96-30l15-64 43-154h32l59 218 59-218h35" id="aW"/><path fill="#3a414a" d="M185-189c-5-48-123-54-124 2 14 75 158 14 163 119 3 78-121 87-175 55-17-10-28-26-33-46l33-7c5 56 141 63 141-1 0-78-155-14-162-118-5-82 145-84 179-34 5 7 8 16 11 25" id="aX"/><g id="t"><use transform="matrix(0.06172839506172839,0,0,0.06172839506172839,0,0)" xlink:href="#aS"/><use transform="matrix(0.06172839506172839,0,0,0.06172839506172839,14.012345679012345,0)" xlink:href="#aW"/><use transform="matrix(0.06172839506172839,0,0,0.06172839506172839,34.938271604938265,0)" xlink:href="#aX"/></g><path fill="#3a414a" d="M127-220V0H93v-220H8v-28h204v28h-85" id="aY"/><path fill="#3a414a" d="M117-194c89-4 53 116 60 194h-32v-121c0-31-8-49-39-48C34-167 62-67 57 0H25l-1-190h30c1 10-1 24 2 32 11-22 29-35 61-36" id="aZ"/><path fill="#3a414a" d="M101-234c-31-9-42 10-38 44h38v23H63V0H32v-167H5v-23h27c-7-52 17-82 69-68v24" id="ba"/><g id="u"><use transform="matrix(0.06172839506172839,0,0,0.06172839506172839,0,0)" xlink:href="#aY"/><use transform="matrix(0.06172839506172839,0,0,0.06172839506172839,12.716049382716047,0)" xlink:href="#aU"/><use transform="matrix(0.06172839506172839,0,0,0.06172839506172839,20.061728395061728,0)" xlink:href="#aL"/><use transform="matrix(0.06172839506172839,0,0,0.06172839506172839,32.407407407407405,0)" xlink:href="#aZ"/><use transform="matrix(0.06172839506172839,0,0,0.06172839506172839,44.75308641975308,0)" xlink:href="#aM"/><use transform="matrix(0.06172839506172839,0,0,0.06172839506172839,55.86419753086419,0)" xlink:href="#ba"/><use transform="matrix(0.06172839506172839,0,0,0.06172839506172839,62.03703703703703,0)" xlink:href="#aV"/><use transform="matrix(0.06172839506172839,0,0,0.06172839506172839,74.38271604938271,0)" xlink:href="#aU"/></g><g id="v"><use transform="matrix(0.06172839506172839,0,0,0.06172839506172839,0,0)" xlink:href="#ba"/><use transform="matrix(0.06172839506172839,0,0,0.06172839506172839,6.172839506172839,0)" xlink:href="#au"/><use transform="matrix(0.06172839506172839,0,0,0.06172839506172839,18.51851851851852,0)" xlink:href="#aU"/></g><path fill="#3a414a" d="M63-220v92h138v28H63V0H30v-248h175v28H63" id="bb"/><g id="w"><use transform="matrix(0.06172839506172839,0,0,0.06172839506172839,0,0)" xlink:href="#aX"/><use transform="matrix(0.06172839506172839,0,0,0.06172839506172839,14.814814814814813,0)" xlink:href="#bb"/><use transform="matrix(0.06172839506172839,0,0,0.06172839506172839,28.33333333333333,0)" xlink:href="#aY"/><use transform="matrix(0.06172839506172839,0,0,0.06172839506172839,41.85185185185185,0)" xlink:href="#aR"/></g><g id="x"><use transform="matrix(0.06172839506172839,0,0,0.06172839506172839,0,0)" xlink:href="#aS"/><use transform="matrix(0.06172839506172839,0,0,0.06172839506172839,14.814814814814813,0)" xlink:href="#aK"/><use transform="matrix(0.06172839506172839,0,0,0.06172839506172839,19.691358024691354,0)" xlink:href="#aO"/><use transform="matrix(0.06172839506172839,0,0,0.06172839506172839,24.5679012345679,0)" xlink:href="#aP"/><use transform="matrix(0.06172839506172839,0,0,0.06172839506172839,35.67901234567901,0)" xlink:href="#aV"/></g></defs></g></svg>